<svg width="501" height="251" viewBox="0 0 501 251" fill="none" xmlns="http://www.w3.org/2000/svg">
<path d="M122.84 27.6646C123.995 25.6646 126.882 25.6645 128.037 27.6645L190.943 136.621C192.097 138.621 190.654 141.121 188.345 141.121H62.5323C60.2229 141.121 58.7795 138.621 59.9342 136.621L122.84 27.6646Z" fill="#D9D9D9"/>
<path d="M122.84 83.0287C123.995 81.0287 126.882 81.0287 128.037 83.0287L190.943 191.985C192.097 193.985 190.654 196.485 188.345 196.485H62.5323C60.2229 196.485 58.7795 193.985 59.9342 191.985L122.84 83.0287Z" fill="#D9D9D9"/>
<path d="M116.077 139.998H134.8V225.376H116.077V139.998Z" fill="#D9D9D9"/>
<path d="M351.859 127.876H370.583V228.99H351.859V127.876Z" fill="#D9D9D9"/>
<path d="M420.812 82.1426C420.812 115.054 394.132 141.734 361.221 141.734C328.309 141.734 301.629 115.054 301.629 82.1426C301.629 49.2309 328.309 22.5508 361.221 22.5508C394.132 22.5508 420.812 49.2309 420.812 82.1426Z" fill="#D9D9D9"/>
<path d="M449.248 139.386C449.248 151.649 439.306 161.591 427.043 161.591C414.78 161.591 404.839 151.649 404.839 139.386C404.839 127.123 414.78 117.182 427.043 117.182C439.306 117.182 449.248 127.123 449.248 139.386Z" fill="#D9D9D9"/>
<path d="M338.917 165.759C338.917 174.835 331.56 182.192 322.485 182.192C313.41 182.192 306.053 174.835 306.053 165.759C306.053 156.684 313.41 149.327 322.485 149.327C331.56 149.327 338.917 156.684 338.917 165.759Z" fill="#D9D9D9"/>
<path d="M425.043 168.733V139.386H429.043V168.733C429.043 171.423 428.793 173.687 428.053 175.514C427.27 177.447 425.974 178.802 424.142 179.669C422.416 180.485 420.291 180.829 417.874 180.997C415.436 181.166 412.469 181.164 408.977 181.164H351.859V177.164H408.977C412.52 177.164 415.329 177.163 417.598 177.005C419.887 176.847 421.4 176.54 422.432 176.052C423.357 175.615 423.94 175.014 424.346 174.012C424.794 172.905 425.043 171.259 425.043 168.733Z" fill="#D9D9D9"/>
<path d="M324.485 190.537V165.759H320.485V190.537C320.485 192.771 320.581 194.571 320.849 195.997C321.115 197.418 321.591 198.688 322.523 199.641C323.484 200.623 324.677 201.012 325.825 201.184C326.925 201.349 328.223 201.343 329.544 201.343H351.859V197.343H329.544C328.116 197.343 327.157 197.339 326.417 197.228C325.726 197.125 325.499 196.963 325.382 196.843C325.237 196.695 324.978 196.314 324.78 195.259C324.583 194.207 324.485 192.706 324.485 190.537Z" fill="#D9D9D9"/>
</svg>
